<svg width="128" height="128" viewBox="0 0 128 128" xmlns="http://www.w3.org/2000/svg">
  <defs>
    <linearGradient id="docGradient" x1="0%" y1="0%" x2="100%" y2="100%">
      <stop offset="0%" style="stop-color:#4A90E2;stop-opacity:1" />
      <stop offset="100%" style="stop-color:#357ABD;stop-opacity:1" />
    </linearGradient>
    <linearGradient id="checkGradient" x1="0%" y1="0%" x2="100%" y2="100%">
      <stop offset="0%" style="stop-color:#5CB85C;stop-opacity:1" />
      <stop offset="100%" style="stop-color:#449D44;stop-opacity:1" />
    </linearGradient>
    <filter id="shadow" x="-20%" y="-20%" width="140%" height="140%">
      <feDropShadow dx="2" dy="4" stdDeviation="3" flood-color="#000000" flood-opacity="0.2"/>
    </filter>
  </defs>
  
  <!-- Background circle -->
  <circle cx="64" cy="64" r="60" fill="url(#docGradient)" filter="url(#shadow)"/>
  
  <!-- Document icon -->
  <g transform="translate(32, 24)">
    <!-- Main document body -->
    <rect x="0" y="8" width="48" height="64" rx="4" ry="4" fill="#FFFFFF" opacity="0.95"/>
    
    <!-- Document fold corner -->
    <path d="M 36 8 L 48 8 L 48 20 L 36 8 Z" fill="#E8E8E8"/>
    <path d="M 36 8 L 36 20 L 48 20" stroke="#D0D0D0" stroke-width="1" fill="none"/>
    
    <!-- Document lines -->
    <rect x="6" y="20" width="30" height="2" rx="1" fill="#4A90E2" opacity="0.7"/>
    <rect x="6" y="26" width="36" height="2" rx="1" fill="#4A90E2" opacity="0.5"/>
    <rect x="6" y="32" width="24" height="2" rx="1" fill="#4A90E2" opacity="0.5"/>
    <rect x="6" y="38" width="32" height="2" rx="1" fill="#4A90E2" opacity="0.5"/>
    <rect x="6" y="44" width="28" height="2" rx="1" fill="#4A90E2" opacity="0.5"/>
    
    <!-- Metadata section highlight -->
    <rect x="6" y="52" width="36" height="12" rx="2" fill="#F0F8FF" stroke="#4A90E2" stroke-width="1" opacity="0.8"/>
    <rect x="8" y="55" width="16" height="1.5" rx="0.5" fill="#4A90E2" opacity="0.8"/>
    <rect x="8" y="58" width="20" height="1.5" rx="0.5" fill="#4A90E2" opacity="0.6"/>
    <rect x="8" y="61" width="12" height="1.5" rx="0.5" fill="#4A90E2" opacity="0.6"/>
  </g>
  
  <!-- Validation checkmark -->
  <g transform="translate(75, 75)">
    <circle cx="12" cy="12" r="16" fill="url(#checkGradient)" filter="url(#shadow)"/>
    <path d="M 6 12 L 10 16 L 18 8" stroke="#FFFFFF" stroke-width="3" stroke-linecap="round" stroke-linejoin="round" fill="none"/>
  </g>
  
  <!-- Small gear icon for management -->
  <g transform="translate(20, 85)" opacity="0.8">
    <circle cx="8" cy="8" r="6" fill="none" stroke="#FFFFFF" stroke-width="1.5"/>
    <circle cx="8" cy="8" r="2.5" fill="#FFFFFF"/>
    <g stroke="#FFFFFF" stroke-width="1.5" stroke-linecap="round">
      <line x1="8" y1="0" x2="8" y2="3"/>
      <line x1="8" y1="13" x2="8" y2="16"/>
      <line x1="0" y1="8" x2="3" y2="8"/>
      <line x1="13" y1="8" x2="16" y2="8"/>
      <line x1="2.3" y1="2.3" x2="4.2" y2="4.2"/>
      <line x1="11.8" y1="11.8" x2="13.7" y2="13.7"/>
      <line x1="2.3" y1="13.7" x2="4.2" y2="11.8"/>
      <line x1="11.8" y1="4.2" x2="13.7" y2="2.3"/>
    </g>
  </g>
</svg>
